<svg width="108" height="105" viewBox="0 0 108 105" fill="none" xmlns="http://www.w3.org/2000/svg">
<path d="M1 8C1 3.85786 4.35786 0.5 8.5 0.5H82.5C86.6421 0.5 90 3.85786 90 8V29.5H1V8Z" stroke="black"/>
<rect x="1" y="29.5" width="89" height="29" stroke="black"/>
<path d="M1 58.5H90V80C90 84.1421 86.6421 87.5 82.5 87.5H8.5C4.35786 87.5 1 84.1421 1 80V58.5Z" stroke="black"/>
<path d="M106.204 82.0583C105.341 80.0431 104.153 78.2977 102.678 76.8222C101.202 75.3468 99.4389 74.1592 97.4416 73.2955C95.4264 72.4318 93.2852 72 91 72C88.7148 72 86.5736 72.4318 84.5584 73.2955C82.5431 74.1592 80.7977 75.3468 79.3223 76.8222C77.8288 78.3157 76.6592 80.0611 75.7955 82.0583C74.9318 84.0736 74.5 86.2148 74.5 88.5C74.5 90.7851 74.9318 92.9264 75.7955 94.9416C76.6592 96.9569 77.8468 98.7023 79.3223 100.178C80.7977 101.653 82.5611 102.841 84.5584 103.704C86.5736 104.568 88.7148 105 91 105C93.2852 105 95.4264 104.568 97.4416 103.704C99.4569 102.841 101.202 101.653 102.678 100.178C104.171 98.6843 105.341 96.9389 106.204 94.9416C107.068 92.9264 107.5 90.7851 107.5 88.5C107.5 86.2148 107.068 84.0736 106.204 82.0583ZM99.169 85.603L89.8304 94.9416C89.5065 95.2655 89.1107 95.4454 88.6788 95.4454C88.247 95.4454 87.8511 95.2835 87.5273 94.9416L82.813 90.2273C82.5071 89.9215 82.3632 89.5436 82.3632 89.0758C82.3632 88.6079 82.5071 88.2301 82.813 87.9242C83.1189 87.6183 83.4967 87.4744 83.9646 87.4744C84.4324 87.4744 84.8103 87.6183 85.1161 87.9242L88.6609 91.4689L96.8299 83.2999C97.1358 82.994 97.5136 82.85 97.9815 82.85C98.4493 82.85 98.8271 82.994 99.133 83.2999C99.4389 83.6058 99.5829 83.9836 99.5829 84.4515C99.5829 84.9193 99.4389 85.2971 99.133 85.603H99.169Z" fill="black"/>
<circle cx="15.5" cy="15" r="5" fill="white"/>
<circle cx="15.5" cy="44" r="5" fill="white"/>
<circle cx="15.5" cy="73" r="5" fill="white"/>
</svg>
