<svg width="108" height="105" viewBox="0 0 108 105" fill="none" xmlns="http://www.w3.org/2000/svg">
<path d="M1 8C1 3.85786 4.35786 0.5 8.5 0.5H82.5C86.6421 0.5 90 3.85786 90 8V29.5H1V8Z" stroke="black"/>
<rect x="1" y="29.5" width="89" height="29" stroke="black"/>
<path d="M1 58.5H90V80C90 84.1421 86.6421 87.5 82.5 87.5H8.5C4.35786 87.5 1 84.1421 1 80V58.5Z" stroke="black"/>
<rect x="74.5" y="72" width="33" height="33" rx="16.5" fill="white"/>
<path d="M91 72C81.892 72 74.5 79.392 74.5 88.5C74.5 97.608 81.892 105 91 105C100.108 105 107.5 97.608 107.5 88.5C107.5 79.392 100.108 72 91 72ZM91 90.15C90.0925 90.15 89.35 89.4075 89.35 88.5V81.9C89.35 80.9925 90.0925 80.25 91 80.25C91.9075 80.25 92.65 80.9925 92.65 81.9V88.5C92.65 89.4075 91.9075 90.15 91 90.15ZM92.65 95.1C92.65 96.0113 91.9113 96.75 91 96.75C90.0887 96.75 89.35 96.0113 89.35 95.1C89.35 94.1887 90.0887 93.45 91 93.45C91.9113 93.45 92.65 94.1887 92.65 95.1Z" fill="black"/>
<circle cx="15.5" cy="15" r="5" fill="white"/>
<circle cx="15.5" cy="44" r="5" fill="white"/>
<circle cx="15.5" cy="73" r="5" fill="white"/>
</svg>
