<svg width="108" height="105" viewBox="0 0 108 105" fill="none" xmlns="http://www.w3.org/2000/svg">
<path d="M1 8C1 3.85786 4.35786 0.5 8.5 0.5H82.5C86.6421 0.5 90 3.85786 90 8V29.5H1V8Z" stroke="black"/>
<rect x="1" y="29.5" width="89" height="29" stroke="black"/>
<path d="M1 58.5H90V80C90 84.1421 86.6421 87.5 82.5 87.5H8.5C4.35786 87.5 1 84.1421 1 80V58.5Z" stroke="black"/>
<path d="M91 105C100.113 105 107.5 97.6127 107.5 88.5C107.5 79.3873 100.113 72 91 72C81.8873 72 74.5 79.3873 74.5 88.5C74.5 97.6127 81.8873 105 91 105Z" fill="#BA151A"/>
<path d="M94.4599 82.0604L84.5604 91.9598C83.9746 92.5456 83.9746 93.4954 84.5604 94.0812C85.1461 94.667 86.0959 94.667 86.6817 94.0812L96.5812 84.1817C97.167 83.5959 97.167 82.6461 96.5812 82.0604C95.9954 81.4746 95.0456 81.4746 94.4599 82.0604Z" fill="white"/>
<path d="M96.5812 91.9602L86.6818 82.0607C86.096 81.4749 85.1462 81.4749 84.5604 82.0607C83.9746 82.6464 83.9746 83.5962 84.5604 84.182L94.4599 94.0815C95.0457 94.6673 95.9955 94.6673 96.5812 94.0815C97.167 93.4957 97.167 92.5459 96.5812 91.9602Z" fill="white"/>
<circle cx="15.5" cy="15" r="5" fill="white"/>
<circle cx="15.5" cy="44" r="5" fill="white"/>
<circle cx="15.5" cy="73" r="5" fill="white"/>
</svg>
